# xmcd CD database file
#
# Track frame offsets:
#	150
#	20262
#	37005
#	54291
#	69666
#	87840
#	102102
#	119236
#	138454
#	157068
#	177936
#	199479
#	217566
#	233934
#	250977
#	271377
#	287139
#	314007
#
# Disc length: 4235 seconds
#
# Revision: 0
# Processed by: cddbd v1.5.2PL0 Copyright (c) Steve Scherf et al.
# Submitted via: CDex 1.70beta2
#
DISCID=10108912
DTITLE=Guest Spot - 17 Classic Hits for Clarinet Backing CD2
DYEAR=1999
DGENRE=Backing Tracks
TTITLE0=Circle Of Life
TTITLE1=Candle In The Wind
TTITLE2=Dancing Queen
TTITLE3=Eternal Flame
TTITLE4=(Everything I Do) I Do It For You
TTITLE5=Every Breath I Take
TTITLE6=Hey Jude
TTITLE7=Falling Into You
TTITLE8=I Am Blessed
TTITLE9=I Believe I Can Fly
TTITLE10=Killing Me Softly With His Song
TTITLE11=One Day I'll Fly Away
TTITLE12=Show Me Heaven
TTITLE13=Love Is All Around
TTITLE14=Take My Breath Away
TTITLE15=Wonderful Tonight
TTITLE16=Torn
TTITLE17=_Data
EXTD=YEAR: 1999
EXTT0=
EXTT1=
EXTT2=
EXTT3=
EXTT4=
EXTT5=
EXTT6=
EXTT7=
EXTT8=
EXTT9=
EXTT10=
EXTT11=
EXTT12=
EXTT13=
EXTT14=
EXTT15=
EXTT16=
EXTT17=
PLAYORDER=
